<?xml version="1.0" standalone="no"?>
<!DOCTYPE svg PUBLIC "-//W3C//DTD SVG 20010904//EN"
 "http://www.w3.org/TR/2001/REC-SVG-20010904/DTD/svg10.dtd">
<svg version="1.0" xmlns="http://www.w3.org/2000/svg"
 width="64.000000pt" height="64.000000pt" viewBox="0 0 64.000000 64.000000"
 preserveAspectRatio="xMidYMid meet">

<g transform="translate(0.000000,64.000000) scale(0.100000,-0.100000)"
fill="#000000" stroke="none">
<path d="M188 593 c-19 -22 -31 -167 -18 -214 13 -44 47 -77 92 -89 33 -9 38
-15 38 -40 0 -29 -2 -30 -46 -30 -39 0 -51 -5 -81 -35 -31 -31 -35 -40 -30
-72 9 -53 47 -88 97 -88 57 0 91 37 98 104 l5 51 49 0 c41 0 53 -4 72 -27 45
-52 126 -23 128 45 1 35 -26 72 -51 71 -11 0 -9 -4 7 -11 44 -21 42 -103 -3
-114 -33 -8 -71 2 -79 21 -4 12 3 15 34 15 33 0 40 3 40 20 0 19 -7 20 -100
20 l-100 0 0 30 c0 25 5 31 38 40 79 21 104 76 95 205 -7 97 -19 116 -70 108
-46 -7 -41 -25 5 -21 l37 3 -2 -88 c0 -49 -7 -102 -13 -118 -16 -37 -56 -59
-110 -59 -54 0 -94 22 -110 59 -6 16 -13 69 -13 118 l-2 88 38 -3 c21 -2 37 2
37 8 0 5 -9 10 -19 10 -11 0 -26 2 -33 5 -8 3 -21 -2 -30 -12z m112 -455 c0
-24 -7 -49 -17 -60 -34 -38 -103 -11 -103 40 0 40 27 62 77 62 l43 0 0 -42z"/>
<path d="M267 553 c-12 -11 -8 -40 7 -52 10 -9 16 -8 25 3 23 27 -8 74 -32 49z"/>
<path d="M337 553 c-12 -11 -8 -40 7 -52 10 -9 16 -8 25 3 23 27 -8 74 -32 49z"/>
<path d="M223 484 c-8 -21 13 -42 28 -27 13 13 5 43 -11 43 -6 0 -13 -7 -17
-16z"/>
<path d="M383 484 c-8 -21 13 -42 28 -27 13 13 5 43 -11 43 -6 0 -13 -7 -17
-16z"/>
<path d="M295 482 c-14 -10 -45 -59 -45 -71 0 -29 50 -42 122 -32 4 1 10 10
13 21 5 14 -2 32 -20 55 -25 34 -49 43 -70 27z"/>
</g>
</svg>
