<?xml version="1.0" standalone="no"?>
<!DOCTYPE svg PUBLIC "-//W3C//DTD SVG 20010904//EN"
 "http://www.w3.org/TR/2001/REC-SVG-20010904/DTD/svg10.dtd">
<svg version="1.0" xmlns="http://www.w3.org/2000/svg"
 width="64.000000pt" height="64.000000pt" viewBox="0 0 64.000000 64.000000"
 preserveAspectRatio="xMidYMid meet">

<g transform="translate(0.000000,64.000000) scale(0.100000,-0.100000)"
fill="#000000" stroke="none">
<path d="M301 616 c-73 -40 -65 -129 20 -221 56 -61 109 -88 144 -75 68 26
164 147 165 208 1 81 -99 132 -162 83 -24 -19 -25 -19 -54 0 -34 22 -79 24
-113 5z m277 -94 c2 -13 -2 -29 -8 -37 -6 -8 -10 -22 -9 -32 2 -10 -2 -27 -8
-39 -12 -20 -82 -74 -97 -74 -5 0 -6 34 -2 75 5 50 3 75 -4 75 -14 0 -13 47 3
54 6 2 37 4 67 3 49 -2 55 -4 58 -25z m-170 -79 c0 -105 -3 -107 -69 -36 -32
34 -35 42 -32 83 l5 45 48 0 47 0 1 -92z"/>
<path d="M50 392 c0 -5 -9 -12 -20 -15 -18 -5 -20 -14 -20 -77 0 -44 6 -82 15
-100 16 -32 61 -60 95 -60 17 0 20 -6 20 -43 0 -33 6 -49 23 -65 21 -20 34
-22 129 -22 103 0 107 1 127 26 16 21 21 41 21 89 0 44 5 66 15 75 34 28 -6
87 -43 64 -23 -15 -27 -48 -7 -64 10 -9 15 -31 15 -76 0 -88 -8 -94 -130 -94
-114 0 -130 9 -130 71 0 33 3 39 20 39 34 0 79 28 95 60 9 18 15 56 15 100 0
63 -2 72 -20 77 -11 3 -20 10 -20 15 0 5 -12 8 -27 6 -22 -2 -28 -8 -28 -28 0
-20 6 -26 28 -28 15 -2 27 1 27 7 0 6 5 11 10 11 6 0 10 -30 10 -71 0 -65 -2
-73 -29 -100 -26 -26 -36 -29 -91 -29 -55 0 -65 3 -91 29 -27 27 -29 35 -29
100 0 41 4 71 10 71 6 0 10 -5 10 -11 0 -6 12 -9 28 -7 21 2 27 8 27 28 0 20
-6 26 -27 28 -16 2 -28 -1 -28 -6z"/>
<path d="M130 295 c0 -8 -7 -15 -15 -15 -8 0 -15 -9 -15 -20 0 -11 7 -20 15
-20 8 0 15 -7 15 -15 0 -8 9 -15 20 -15 11 0 20 7 20 15 0 8 7 15 15 15 8 0
15 9 15 20 0 11 -7 20 -15 20 -8 0 -15 7 -15 15 0 8 -9 15 -20 15 -11 0 -20
-7 -20 -15z"/>
</g>
</svg>
