<?xml version="1.0" standalone="no"?>
<!DOCTYPE svg PUBLIC "-//W3C//DTD SVG 20010904//EN"
 "http://www.w3.org/TR/2001/REC-SVG-20010904/DTD/svg10.dtd">
<svg version="1.0" xmlns="http://www.w3.org/2000/svg"
 width="32.000000pt" height="32.000000pt" viewBox="0 0 32.000000 32.000000"
 preserveAspectRatio="xMidYMid meet">

<g transform="translate(0.000000,32.000000) scale(0.100000,-0.100000)"
fill="#000000" stroke="none">
<path d="M41 279 c-19 -18 -22 -28 -17 -61 8 -49 29 -81 61 -96 20 -9 25 -19
25 -46 0 -60 60 -76 68 -17 4 27 30 27 34 0 2 -12 10 -27 20 -32 28 -18 48 9
48 62 0 26 5 52 12 59 10 10 8 16 -5 29 -16 16 -18 16 -34 0 -13 -13 -15 -19
-5 -29 18 -18 16 -108 -3 -108 -8 0 -15 8 -15 19 0 10 -7 24 -16 32 -20 16
-48 1 -52 -30 -6 -37 -32 -25 -32 14 0 28 5 38 25 47 32 15 53 47 61 96 5 33
2 43 -17 61 -29 26 -39 27 -39 0 0 -16 4 -19 20 -14 17 6 20 2 20 -30 0 -48
-25 -93 -55 -101 -61 -15 -105 27 -105 101 0 32 3 36 20 30 16 -5 20 -2 20 14
0 27 -10 26 -39 0z m239 -119 c0 -5 -4 -10 -10 -10 -5 0 -10 5 -10 10 0 6 5
10 10 10 6 0 10 -4 10 -10z"/>
<path d="M95 210 c-24 -27 -13 -48 24 -46 41 2 47 11 27 41 -20 30 -27 31 -51
5z m43 -18 c2 -7 -6 -12 -17 -12 -21 0 -27 11 -14 24 9 9 26 2 31 -12z"/>
</g>
</svg>
